<svg width="22" height="22" viewBox="0 0 22 22" fill="none" xmlns="http://www.w3.org/2000/svg">
<path d="M14.3333 10.5002L13.0999 10.0669C12.9999 9.73353 12.8666 9.4002 12.6666 9.06686L13.2333 7.9002C13.2999 7.76686 13.2666 7.6002 13.1666 7.53353L11.7333 6.10019C11.6333 6.00019 11.4666 5.96686 11.3666 6.03353L10.1999 6.60019C9.86659 6.43353 9.53325 6.3002 9.19992 6.16686L8.76659 4.93353C8.73325 4.8002 8.59992 4.7002 8.46659 4.7002H6.43325C6.29992 4.7002 6.16658 4.8002 6.09992 4.93353L5.66659 6.16686C5.33325 6.26686 4.99992 6.40019 4.66659 6.60019L3.53325 6.0002C3.39992 5.93353 3.26659 5.96686 3.13325 6.06686L1.69992 7.5002C1.59992 7.60019 1.56659 7.76686 1.63325 7.86686L2.19992 9.03353C2.03325 9.36686 1.89992 9.70019 1.79992 10.0335L0.566585 10.4669C0.433252 10.5335 0.333252 10.6669 0.333252 10.8002V12.8335C0.333252 12.9669 0.433252 13.1002 0.566585 13.1669L1.79992 13.6002C1.89992 13.9335 2.03325 14.2669 2.23325 14.6002L1.66659 15.7669C1.59992 15.9002 1.63325 16.0669 1.73325 16.1669L3.16659 17.6002C3.26659 17.7002 3.43325 17.7335 3.56659 17.6669L4.73325 17.1002C5.06659 17.2669 5.39992 17.4002 5.73325 17.5335L6.16659 18.7669C6.19992 18.9002 6.33325 19.0002 6.46659 19.0002H8.49992C8.63325 19.0002 8.76659 18.9002 8.79992 18.7669L9.23325 17.5335C9.56659 17.4335 9.89992 17.3002 10.2333 17.1002L11.3999 17.6669C11.5333 17.7335 11.6666 17.7002 11.7666 17.6002L13.1999 16.1669C13.2999 16.0669 13.3333 15.9002 13.2666 15.7669L12.6666 14.5669C12.8333 14.2335 12.9666 13.9002 13.0999 13.5669L14.3333 13.1335C14.4666 13.1002 14.5666 12.9669 14.5666 12.8002V10.7669C14.5666 10.6669 14.4666 10.5335 14.3333 10.5002ZM7.43325 14.6669C5.86659 14.6669 4.59992 13.4002 4.59992 11.8335C4.59992 10.2669 5.86659 9.0002 7.43325 9.0002C8.99992 9.0002 10.2666 10.2669 10.2666 11.8335C10.2666 13.3669 8.99992 14.6669 7.43325 14.6669Z" fill="#101010"/>
<path d="M21.4332 3.86693L20.7665 3.63359C20.6999 3.46693 20.6332 3.30026 20.5665 3.16693L20.8665 2.53359C20.9332 2.40026 20.8999 2.26693 20.7999 2.13359L19.9999 1.30026C19.8999 1.20026 19.7332 1.16693 19.6332 1.23359L18.9999 1.53359C18.8332 1.46693 18.6999 1.40026 18.5332 1.33359L18.2999 0.666927C18.2665 0.533594 18.1332 0.433594 17.9999 0.433594H16.7999C16.6665 0.433594 16.5332 0.533594 16.4665 0.666927L16.2332 1.33359C16.0665 1.40026 15.8999 1.46693 15.7665 1.53359L15.1332 1.23359C14.9999 1.16693 14.8332 1.20026 14.7332 1.30026L13.8999 2.13359C13.7999 2.23359 13.7665 2.40026 13.8332 2.53359L14.1332 3.16693C14.0665 3.33359 13.9999 3.46693 13.9332 3.63359L13.2665 3.86693C13.1332 3.90026 13.0332 4.03359 13.0332 4.16693V5.36693C13.0332 5.50026 13.1332 5.63359 13.2665 5.66693L13.9332 5.90026C13.9999 6.06693 14.0665 6.23359 14.1332 6.40026L13.8332 7.00026C13.7665 7.13359 13.7999 7.30026 13.8999 7.40026L14.7332 8.23359C14.8332 8.33359 14.9999 8.36693 15.1332 8.30026L15.7665 8.00026C15.9332 8.06693 16.0999 8.13359 16.2332 8.20026L16.4665 8.86693C16.4999 9.00026 16.6332 9.10026 16.7999 9.10026H17.9999C18.1332 9.10026 18.2665 9.00026 18.2999 8.86693L18.5332 8.20026C18.6999 8.13359 18.8665 8.06693 18.9999 8.00026L19.6332 8.30026C19.7665 8.36693 19.8999 8.33359 20.0332 8.23359L20.8665 7.40026C20.9665 7.30026 20.9999 7.13359 20.9332 7.00026L20.6332 6.36693C20.6999 6.20026 20.7665 6.03359 20.8332 5.86693L21.4999 5.63359C21.6332 5.60026 21.7332 5.46693 21.7332 5.33359V4.13359C21.6665 4.03359 21.5665 3.90026 21.4332 3.86693ZM17.3665 6.43359C16.4332 6.43359 15.6999 5.70026 15.6999 4.76693C15.6999 3.86693 16.4332 3.10026 17.3665 3.10026C18.2665 3.10026 19.0332 3.83359 19.0332 4.76693C19.0332 5.70026 18.2665 6.43359 17.3665 6.43359Z" fill="#101010"/>
<path d="M21.4333 14.7335L20.4999 14.4002C20.4333 14.1335 20.3333 13.9002 20.1999 13.6669L20.6333 12.7669C20.6999 12.6335 20.6666 12.5002 20.5666 12.4002L19.4333 11.2669C19.3333 11.1669 19.1666 11.1335 19.0333 11.2002L18.1666 11.6669C17.9333 11.5335 17.6666 11.4335 17.4333 11.3669L17.1333 10.4335C17.0999 10.3002 16.9666 10.2002 16.7999 10.2002H15.1999C15.1333 10.2002 15.0999 10.2002 15.0333 10.2335C15.1333 10.4002 15.1999 10.6002 15.1999 10.8002V12.8335C15.1999 13.2669 14.9333 13.6335 14.5333 13.7669L13.5999 14.1002C13.5333 14.2669 13.4666 14.4335 13.3999 14.5669L13.8333 15.4335C14.0333 15.8335 13.9666 16.2669 13.6333 16.6002L12.1999 18.0335C12.0333 18.2002 11.8333 18.3002 11.6333 18.3335L11.3333 18.9335C11.2666 19.0669 11.2999 19.2002 11.3999 19.3002L12.5333 20.4335C12.6333 20.5335 12.7999 20.5669 12.9333 20.5002L13.8333 20.0669C14.0666 20.2002 14.3333 20.3002 14.5666 20.3669L14.8999 21.3002C14.9333 21.4335 15.0666 21.5335 15.2333 21.5335H16.8333C16.9666 21.5335 17.0999 21.4335 17.1666 21.3002L17.4666 20.3669C17.7333 20.2669 17.9666 20.1669 18.1999 20.0669L19.0999 20.5002C19.2333 20.5669 19.3666 20.5335 19.4999 20.4335L20.6333 19.3002C20.7333 19.2002 20.7666 19.0335 20.6999 18.9335L20.2666 18.0335C20.3999 17.8002 20.4999 17.5335 20.5666 17.3002L21.4999 16.9669C21.6333 16.9335 21.7333 16.8002 21.7333 16.6335V15.0335C21.6666 14.9002 21.5666 14.8002 21.4333 14.7335ZM16.3333 18.1002C15.0999 18.1002 14.0999 17.1002 14.0999 15.8669C14.0999 14.6335 15.0999 13.6335 16.3333 13.6335C17.5666 13.6335 18.5666 14.6335 18.5666 15.8669C18.5666 17.1002 17.5666 18.1002 16.3333 18.1002Z" fill="#101010"/>
</svg>
