<svg width="16" height="16" viewBox="0 0 16 16" fill="none" xmlns="http://www.w3.org/2000/svg">
<g clip-path="url(#clip0_18_4176)">
<path d="M14.4 1.6H13.6V0.8C13.6 0.32 13.28 0 12.8 0C12.32 0 12 0.32 12 0.8V1.6H4V0.8C4 0.32 3.68 0 3.2 0C2.72 0 2.4 0.32 2.4 0.8V1.6H0.8C0.4 1.6 0 1.92 0 2.4V13.6C0 14.08 0.4 14.4 0.8 14.4H5.68C5.12 13.44 4.8 12.32 4.8 11.2C4.8 7.68 7.68 4.8 11.2 4.8C12.72 4.8 14.08 5.36 15.2 6.24V2.4C15.2 2 14.8 1.6 14.4 1.6Z" fill="#D6D7D8"/>
<path d="M11.2 6.3999C8.56002 6.3999 6.40002 8.5599 6.40002 11.1999C6.40002 13.8399 8.56002 15.9999 11.2 15.9999C13.84 15.9999 16 13.8399 16 11.1999C16 8.5599 13.84 6.3999 11.2 6.3999ZM12.8 11.9999H11.2C10.72 11.9999 10.4 11.6799 10.4 11.1999V8.7999C10.4 8.3199 10.72 7.9999 11.2 7.9999C11.68 7.9999 12 8.3199 12 8.7999V10.3999H12.8C13.28 10.3999 13.6 10.7199 13.6 11.1999C13.6 11.6799 13.28 11.9999 12.8 11.9999Z" fill="#D6D7D8"/>
</g>
<defs>
<clipPath id="clip0_18_4176">
<rect width="16" height="16" fill="white"/>
</clipPath>
</defs>
</svg>
