<svg width="16" height="16" viewBox="0 0 16 16" fill="none" xmlns="http://www.w3.org/2000/svg">
<path d="M11.021 2.92187H10.5732V2.46875C10.5732 2.20986 10.3633 2 10.1044 2C9.84555 2 9.63569 2.20986 9.63569 2.46875V2.92187H5.03662V2.46875C5.03662 2.20986 4.82676 2 4.56787 2C4.30898 2 4.09912 2.20986 4.09912 2.46875V2.92187H3.65135C2.37328 2.92187 1.3335 3.96165 1.3335 5.2397V11.6821C1.3335 12.9602 2.37328 14 3.65135 14H11.021C12.2991 14 13.3388 12.9602 13.3388 11.6821V5.2397C13.3388 3.96165 12.2991 2.92187 11.021 2.92187ZM3.65135 3.85937H4.09912V4.77343C4.09912 5.03232 4.30898 5.24218 4.56787 5.24218C4.82676 5.24218 5.03662 5.03232 5.03662 4.77343V3.85937H9.63571V4.77343C9.63571 5.03232 9.84557 5.24218 10.1045 5.24218C10.3634 5.24218 10.5732 5.03232 10.5732 4.77343V3.85937H11.021C11.7821 3.85937 12.4013 4.47859 12.4013 5.2397V5.68749H2.271V5.2397C2.271 4.47859 2.89021 3.85937 3.65135 3.85937ZM11.021 13.0625H3.65135C2.89021 13.0625 2.271 12.4433 2.271 11.6821V6.62499H12.4013V11.6821C12.4013 12.4433 11.7821 13.0625 11.021 13.0625ZM5.49757 8.46875C5.49757 8.72764 5.28771 8.9375 5.02882 8.9375H4.10695C3.84806 8.9375 3.6382 8.72764 3.6382 8.46875C3.6382 8.20986 3.84806 8 4.10695 8H5.02882C5.28768 8 5.49757 8.20986 5.49757 8.46875ZM11.0342 8.46875C11.0342 8.72764 10.8243 8.9375 10.5654 8.9375H9.64354C9.38465 8.9375 9.17479 8.72764 9.17479 8.46875C9.17479 8.20986 9.38465 8 9.64354 8H10.5654C10.8243 8 11.0342 8.20986 11.0342 8.46875ZM8.26319 8.46875C8.26319 8.72764 8.05333 8.9375 7.79444 8.9375H6.87257C6.61368 8.9375 6.40382 8.72764 6.40382 8.46875C6.40382 8.20986 6.61368 8 6.87257 8H7.79444C8.05331 8 8.26319 8.20986 8.26319 8.46875ZM5.49757 11.2344C5.49757 11.4933 5.28771 11.7031 5.02882 11.7031H4.10695C3.84806 11.7031 3.6382 11.4933 3.6382 11.2344C3.6382 10.9755 3.84806 10.7656 4.10695 10.7656H5.02882C5.28768 10.7656 5.49757 10.9755 5.49757 11.2344ZM11.0342 11.2344C11.0342 11.4933 10.8243 11.7031 10.5654 11.7031H9.64354C9.38465 11.7031 9.17479 11.4933 9.17479 11.2344C9.17479 10.9755 9.38465 10.7656 9.64354 10.7656H10.5654C10.8243 10.7656 11.0342 10.9755 11.0342 11.2344ZM8.26319 11.2344C8.26319 11.4933 8.05333 11.7031 7.79444 11.7031H6.87257C6.61368 11.7031 6.40382 11.4933 6.40382 11.2344C6.40382 10.9755 6.61368 10.7656 6.87257 10.7656H7.79444C8.05331 10.7656 8.26319 10.9755 8.26319 11.2344Z" fill="#8E8E8E"/>
</svg>
