<svg width="24" height="18" viewBox="0 0 24 18" fill="none" xmlns="http://www.w3.org/2000/svg">
<path d="M21.854 9.15913L19.1831 8.70509C19.1166 8.66834 19.0433 8.64256 18.9658 8.62897L16.929 5.96159C16.3602 5.21675 15.5476 4.78517 14.625 4.73258V2.63281C14.625 2.2445 14.3102 1.92969 13.9219 1.92969H11.3907V1.08594C11.3907 0.697625 11.0759 0.382812 10.6875 0.382812H5.10938C4.72106 0.382812 4.40625 0.697625 4.40625 1.08594V4.727H3.72656C2.84536 4.727 2.09475 5.23536 1.7678 6.05366L0.0502031 10.352C0.0170156 10.4349 0 10.5235 0 10.6129V14.852C0 15.2404 0.314812 15.5552 0.703125 15.5552H2.87381C3.13209 16.7331 4.18313 17.6176 5.4375 17.6176C6.69187 17.6176 7.74291 16.7331 8.00119 15.5552H15.9989C16.2571 16.7331 17.3082 17.6176 18.5625 17.6176C19.8169 17.6176 20.868 16.7331 21.1262 15.5552H23.2969C23.6852 15.5552 24 15.2404 24 14.852V11.7008C24 10.4395 23.0975 9.37053 21.854 9.15913ZM15.8113 6.81505L17.1878 8.61767H11.3341V6.14839L14.4329 6.13325C15.0021 6.13325 15.4658 6.36261 15.8113 6.81505ZM6.03614 6.14844H9.92784V8.61767H5.18198L6.03614 6.14844ZM13.2188 3.33594V4.727H11.3906V3.33594H13.2188ZM5.8125 1.78906H9.98438V4.727H5.8125V1.78906ZM5.4375 16.2114C4.76545 16.2114 4.21875 15.6647 4.21875 14.9927C4.21875 14.3206 4.76545 13.7739 5.4375 13.7739C6.10955 13.7739 6.65625 14.3206 6.65625 14.9927C6.65625 15.6647 6.10955 16.2114 5.4375 16.2114ZM18.5625 16.2114C17.8905 16.2114 17.3438 15.6647 17.3438 14.9927C17.3438 14.3206 17.8905 13.7739 18.5625 13.7739C19.2345 13.7739 19.7812 14.3206 19.7812 14.9927C19.7812 15.6647 19.2345 16.2114 18.5625 16.2114ZM21.0476 14.1489C20.6953 13.1143 19.7148 12.3676 18.5625 12.3676C17.4102 12.3676 16.4297 13.1143 16.0774 14.1489H7.92258C7.57031 13.1143 6.58978 12.3676 5.4375 12.3676C4.28522 12.3676 3.30469 13.1143 2.95242 14.1489H1.40625V12.0864H1.45308C1.84139 12.0864 2.1562 11.7716 2.1562 11.3833C2.1562 10.995 1.84139 10.6802 1.45308 10.6802H1.43339L3.07359 6.57552C3.18427 6.29862 3.42834 6.13325 3.72656 6.13325H4.55339L3.5303 9.09097C3.45595 9.30589 3.49017 9.54345 3.62208 9.7287C3.75398 9.91391 3.96736 10.0239 4.1948 10.0239H18.5503L21.6183 10.5455C22.0667 10.6217 22.4085 10.9285 22.5373 11.3364H22.5234C22.1351 11.3364 21.8203 11.6512 21.8203 12.0395C21.8203 12.4278 22.1351 12.7426 22.5234 12.7426H22.5938V14.1489H21.0476Z" fill="#101010"/>
</svg>
