<?xml version="1.0" encoding="UTF-8"?>
<svg width="20px" height="20px" viewBox="0 0 20 20" version="1.1" xmlns="http://www.w3.org/2000/svg" xmlns:xlink="http://www.w3.org/1999/xlink">
    <title>category</title>
    <g id="Page-1" stroke="none" stroke-width="1" fill="none" fill-rule="evenodd">
        <g id="category" fill="#000000" fill-rule="nonzero">
            <path d="M7,0 L2,0 C0.9,0 0,0.9 0,2 L0,7 C0,8.1 0.9,9 2,9 L7,9 C8.1,9 9,8.1 9,7 L9,2 C9,0.9 8.1,0 7,0 Z M7,7 L2,7 L2,2 L7,2 L7,7 Z" id="Shape"></path>
            <path d="M18,0 L13,0 C11.9,0 11,0.9 11,2 L11,7 C11,8.1 11.9,9 13,9 L18,9 C19.1,9 20,8.1 20,7 L20,2 C20,0.9 19.1,0 18,0 Z M18,7 L13,7 L13,2 L18,2 L18,7 Z" id="Shape"></path>
            <path d="M7,11 L2,11 C0.9,11 0,11.9 0,13 L0,18 C0,19.1 0.9,20 2,20 L7,20 C8.1,20 9,19.1 9,18 L9,13 C9,11.9 8.1,11 7,11 Z M7,18 L2,18 L2,13 L7,13 L7,18 Z" id="Shape"></path>
            <path d="M18,11 L13,11 C11.9,11 11,11.9 11,13 L11,18 C11,19.1 11.9,20 13,20 L18,20 C19.1,20 20,19.1 20,18 L20,13 C20,11.9 19.1,11 18,11 Z M18,18 L13,18 L13,13 L18,13 L18,18 Z" id="Shape"></path>
        </g>
    </g>
</svg>
