<svg width="22" height="22" viewBox="0 0 22 22" fill="none" xmlns="http://www.w3.org/2000/svg">
    <rect x="1" y="1" width="20" height="20" rx="4" fill="black"/>
    <rect x="1" y="1" width="20" height="20" rx="4" stroke="black"/>
    <path d="M16.5917 7.00834C16.5142 6.93023 16.422 6.86824 16.3205 6.82593C16.2189 6.78362 16.11 6.76184 16 6.76184C15.89 6.76184 15.7811 6.78362 15.6795 6.82593C15.578 6.86824 15.4858 6.93023 15.4083 7.00834L9.20001 13.225L6.59168 10.6083C6.51124 10.5306 6.41629 10.4695 6.31224 10.4285C6.2082 10.3875 6.09709 10.3674 5.98528 10.3694C5.87346 10.3713 5.76312 10.3952 5.66055 10.4398C5.55799 10.4844 5.46521 10.5487 5.38751 10.6292C5.30981 10.7096 5.24872 10.8046 5.20771 10.9086C5.16671 11.0127 5.1466 11.1238 5.14853 11.2356C5.15047 11.3474 5.17441 11.4577 5.21899 11.5603C5.26356 11.6629 5.32791 11.7556 5.40834 11.8333L8.60834 15.0333C8.68581 15.1114 8.77798 15.1734 8.87953 15.2157C8.98108 15.2581 9.09 15.2798 9.20001 15.2798C9.31002 15.2798 9.41894 15.2581 9.52049 15.2157C9.62204 15.1734 9.71421 15.1114 9.79168 15.0333L16.5917 8.23334C16.6763 8.1553 16.7438 8.06059 16.7899 7.95518C16.8361 7.84976 16.86 7.73592 16.86 7.62084C16.86 7.50575 16.8361 7.39192 16.7899 7.2865C16.7438 7.18108 16.6763 7.08637 16.5917 7.00834Z" fill="white"/>
</svg>
