<svg width="22" height="22" viewBox="0 0 22 22" fill="none" xmlns="http://www.w3.org/2000/svg">
<rect x="1" y="1" width="20" height="20" rx="4" fill="white"/>
<rect x="1" y="1" width="20" height="20" rx="4" stroke="#F2F2F2"/>
<path d="M16.5917 7.00834C16.5142 6.93023 16.4221 6.86824 16.3205 6.82593C16.219 6.78362 16.11 6.76184 16 6.76184C15.89 6.76184 15.7811 6.78362 15.6796 6.82593C15.578 6.86824 15.4858 6.93023 15.4084 7.00834L9.20004 13.225L6.59171 10.6083C6.51127 10.5306 6.41632 10.4695 6.31227 10.4285C6.20823 10.3875 6.09713 10.3674 5.98531 10.3694C5.87349 10.3713 5.76315 10.3952 5.66058 10.4398C5.55802 10.4844 5.46524 10.5487 5.38754 10.6292C5.30984 10.7096 5.24875 10.8046 5.20774 10.9086C5.16674 11.0127 5.14663 11.1238 5.14856 11.2356C5.1505 11.3474 5.17444 11.4577 5.21902 11.5603C5.2636 11.6629 5.32794 11.7556 5.40837 11.8333L8.60837 15.0333C8.68584 15.1114 8.77801 15.1734 8.87956 15.2157C8.98111 15.2581 9.09003 15.2798 9.20004 15.2798C9.31005 15.2798 9.41897 15.2581 9.52052 15.2157C9.62207 15.1734 9.71424 15.1114 9.79171 15.0333L16.5917 8.23334C16.6763 8.1553 16.7438 8.06059 16.79 7.95518C16.8361 7.84976 16.86 7.73592 16.86 7.62084C16.86 7.50575 16.8361 7.39192 16.79 7.2865C16.7438 7.18108 16.6763 7.08637 16.5917 7.00834Z" fill="black"/>
</svg>
