<svg width="26" height="26" viewBox="0 0 26 26" fill="none" xmlns="http://www.w3.org/2000/svg">
<rect width="26" height="26" rx="13" fill="#D8F4DB"/>
<path d="M17.0838 8.83367C17.2775 8.64927 17.5352 8.54732 17.8027 8.54935C18.0701 8.55137 18.3263 8.6572 18.5171 8.84452C18.708 9.03183 18.8187 9.28597 18.8257 9.55331C18.8328 9.82065 18.7357 10.0803 18.555 10.2774L13.0688 17.1387C12.9744 17.2403 12.8606 17.3218 12.734 17.3784C12.6074 17.435 12.4708 17.4655 12.3321 17.4681C12.1935 17.4707 12.0558 17.4452 11.9272 17.3934C11.7986 17.3415 11.6818 17.2642 11.5838 17.1662L7.94553 13.5279C7.84421 13.4335 7.76295 13.3197 7.70658 13.1932C7.65022 13.0667 7.61991 12.9301 7.61747 12.7916C7.61503 12.6532 7.6405 12.5156 7.69237 12.3872C7.74423 12.2588 7.82143 12.1422 7.91936 12.0442C8.01728 11.9463 8.13393 11.8691 8.26234 11.8173C8.39075 11.7654 8.52829 11.7399 8.66675 11.7424C8.80522 11.7448 8.94177 11.7751 9.06827 11.8315C9.19477 11.8878 9.30862 11.9691 9.40303 12.0704L12.2823 14.9483L17.0577 8.86392L17.0838 8.83367Z" fill="#101010"/>
</svg>
