<?xml version="1.0" encoding="UTF-8"?>
<svg width="20px" height="20px" viewBox="0 0 20 20" version="1.1" xmlns="http://www.w3.org/2000/svg" xmlns:xlink="http://www.w3.org/1999/xlink">
    <title>color</title>
    <g id="Page-1" stroke="none" stroke-width="1" fill="none" fill-rule="evenodd">
        <g id="color" fill="#000000" fill-rule="nonzero">
            <path d="M10,0 C4.48,0 0,4.48 0,10 C0,15.52 4.48,20 10,20 C11.85,20 13.55,19.45 15,18.51 C13.98,17.73 13.33,16.55 13.33,15.2 C13.33,12.93 15.13,11.13 17.4,11.13 C18.75,11.13 19.93,11.78 20.71,12.8 C21.45,11.35 21.88,9.75 21.88,8 C21.88,3.58 16.42,0 10,0 Z M3.8,10 C2.75,10 1.9,9.15 1.9,8.1 C1.9,7.05 2.75,6.2 3.8,6.2 C4.85,6.2 5.7,7.05 5.7,8.1 C5.7,9.15 4.85,10 3.8,10 Z M7.6,5.7 C6.55,5.7 5.7,4.85 5.7,3.8 C5.7,2.75 6.55,1.9 7.6,1.9 C8.65,1.9 9.5,2.75 9.5,3.8 C9.5,4.85 8.65,5.7 7.6,5.7 Z M12.4,5.7 C11.35,5.7 10.5,4.85 10.5,3.8 C10.5,2.75 11.35,1.9 12.4,1.9 C13.45,1.9 14.3,2.75 14.3,3.8 C14.3,4.85 13.45,5.7 12.4,5.7 Z M16.2,10 C15.15,10 14.3,9.15 14.3,8.1 C14.3,7.05 15.15,6.2 16.2,6.2 C17.25,6.2 18.1,7.05 18.1,8.1 C18.1,9.15 17.25,10 16.2,10 Z" id="Shape"></path>
        </g>
    </g>
</svg>
