<svg width="19" height="18" viewBox="0 0 19 18" fill="none" xmlns="http://www.w3.org/2000/svg">
<path fill-rule="evenodd" clip-rule="evenodd" d="M4.40527 3.28919C4.40527 1.51025 5.83731 0.0625 7.62277 0.0625H11.6928C13.4782 0.0625 14.9103 1.51024 14.9103 3.28919V14.7108C14.9103 16.4914 13.4675 17.9375 11.6928 17.9375H7.62277C5.83731 17.9375 4.40527 16.4897 4.40527 14.7108V3.28919ZM7.62277 1.4375C6.60324 1.4375 5.78027 2.26312 5.78027 3.28919V14.7108C5.78027 15.7369 6.60324 16.5625 7.62277 16.5625H11.6928C12.7048 16.5625 13.5353 15.7352 13.5353 14.7108V3.28919C13.5353 2.26313 12.7124 1.4375 11.6928 1.4375H7.62277Z" fill="#101010"/>
<path fill-rule="evenodd" clip-rule="evenodd" d="M13.5811 2.8125H15.3869C16.2497 2.8125 17.0565 3.15223 17.6606 3.75635C18.2666 4.36234 18.6044 5.1791 18.6044 6.03919V11.9608C18.6044 12.8093 18.2684 13.6345 17.663 14.2412C17.0635 14.8511 16.2447 15.1875 15.3869 15.1875H13.5811V2.8125ZM14.9561 4.1875V13.8125H15.3869C15.8847 13.8125 16.3482 13.618 16.6836 13.2761L16.6883 13.2714C17.0347 12.925 17.2294 12.4495 17.2294 11.9608V6.03919C17.2294 5.54259 17.0356 5.07597 16.6883 4.72865C16.3391 4.37945 15.8808 4.1875 15.3869 4.1875H14.9561Z" fill="#101010"/>
<path fill-rule="evenodd" clip-rule="evenodd" d="M3.947 4.1875C3.45307 4.1875 2.99483 4.37945 2.64563 4.72865C2.29923 5.07504 2.10449 5.55046 2.10449 6.03919V12.3825C2.10449 12.763 2.25464 13.1279 2.51731 13.3905C2.79295 13.6662 3.15024 13.8125 3.52531 13.8125H4.37786V4.1875H3.947ZM1.67335 3.75635C2.27748 3.15223 3.08427 2.8125 3.947 2.8125H5.75286V15.1875H3.52531C2.78205 15.1875 2.07605 14.8938 1.54504 14.3628C1.01938 13.8371 0.729492 13.1203 0.729492 12.3825V6.03919C0.729492 5.1896 1.06642 4.36328 1.67335 3.75635Z" fill="#101010"/>
</svg>
