<svg width="16" height="12" viewBox="0 0 16 12" fill="none" xmlns="http://www.w3.org/2000/svg">
<path d="M14.5938 0.375H1.40625C0.629281 0.375 0 1.00819 0 1.78125V10.2188C0 10.9964 0.633906 11.625 1.40625 11.625H14.5938C15.3642 11.625 16 10.9991 16 10.2188V1.78125C16 1.00956 15.3732 0.375 14.5938 0.375ZM14.3968 1.3125C14.1095 1.59828 9.16509 6.51666 8.99438 6.68647C8.72875 6.95209 8.37562 7.09834 8 7.09834C7.62437 7.09834 7.27125 6.95206 7.00475 6.68559C6.88994 6.57137 2.00009 1.70731 1.60319 1.3125H14.3968ZM0.9375 10.0279V1.97266L4.98869 6.0025L0.9375 10.0279ZM1.60378 10.6875L5.65338 6.66366L6.34272 7.34937C6.78541 7.79206 7.37397 8.03584 8 8.03584C8.62603 8.03584 9.21459 7.79206 9.65641 7.35025L10.3466 6.66366L14.3962 10.6875H1.60378ZM15.0625 10.0279L11.0113 6.0025L15.0625 1.97266V10.0279Z" fill="white"/>
</svg>
