<?xml version="1.0" encoding="UTF-8"?>
<svg width="20px" height="20px" viewBox="0 0 20 20" version="1.1" xmlns="http://www.w3.org/2000/svg" xmlns:xlink="http://www.w3.org/1999/xlink">
    <title>email</title>
    <g id="Page-1" stroke="none" stroke-width="1" fill="none" fill-rule="evenodd">
        <g id="email" fill="#000000" fill-rule="nonzero">
            <path d="M18.2422 0.46875H1.75781C0.786602 0.46875 0 1.26024 0 2.22656V12.7734C0 13.7455 0.792383 14.5312 1.75781 14.5312H18.2422C19.2053 14.5312 20 13.7489 20 12.7734V2.22656C20 1.26195 19.2165 0.46875 18.2422 0.46875ZM17.996 1.64062C17.6369 1.99785 11.4564 8.14583 11.2429 8.35809C10.9109 8.69011 10.4695 8.87292 10 8.87292C9.53047 8.87292 9.08906 8.69008 8.75594 8.35699C8.61243 8.21421 2.50011 2.13414 2.00399 1.64062H17.996ZM1.17188 12.5349V2.46582L6.23586 7.50312L1.17188 12.5349ZM2.00472 13.3594L7.06673 8.32958L7.92841 9.18671C8.48177 9.74008 9.21747 10.0448 10 10.0448C10.7825 10.0448 11.5182 9.74008 12.0705 9.18781L12.9333 8.32958L17.9953 13.3594H2.00472ZM18.8281 12.5349L13.7642 7.50312L18.8281 2.46582V12.5349Z"></path>
        </g>
    </g>
</svg>
