<svg width="14" height="16" viewBox="0 0 14 16" fill="none" xmlns="http://www.w3.org/2000/svg">
<path d="M9 0.5H1C0.4485 0.5 0 0.9485 0 1.5V14.5C0 15.0515 0.4485 15.5 1 15.5H9C9.5515 15.5 10 15.0515 10 14.5V1.5C10 0.9485 9.5515 0.5 9 0.5ZM8 5.5C8 6.0515 7.5515 6.5 7 6.5H3C2.4485 6.5 2 6.0515 2 5.5V3.5C2 2.9485 2.4485 2.5 3 2.5H7C7.5515 2.5 8 2.9485 8 3.5V5.5Z" fill="#101010"/>
<path d="M11.5 6.5H9.5C9.224 6.5 9 6.276 9 6C9 5.724 9.224 5.5 9.5 5.5H11.5C11.776 5.5 12 5.724 12 6C12 6.276 11.776 6.5 11.5 6.5Z" fill="#101010"/>
<path d="M11.5 14.5C11.224 14.5 11 14.276 11 14V6C11 5.724 11.224 5.5 11.5 5.5C11.776 5.5 12 5.724 12 6V14C12 14.276 11.776 14.5 11.5 14.5Z" fill="#101010"/>
<path d="M13.5 14.5H11.5C11.224 14.5 11 14.276 11 14C11 13.724 11.224 13.5 11.5 13.5H13.5C13.776 13.5 14 13.724 14 14C14 14.276 13.776 14.5 13.5 14.5Z" fill="#101010"/>
<path d="M13.9614 2.80912C13.9359 2.74812 13.8994 2.69263 13.8534 2.64663L11.8534 0.646625C11.6579 0.451125 11.3419 0.451125 11.1464 0.646625C10.9509 0.842125 10.9509 1.15812 11.1464 1.35362L11.4934 1.70063C11.1829 2.06163 10.9999 2.51863 10.9999 3.00012C10.9999 4.10313 11.8969 5.00012 12.9999 5.00012V14.0001C12.9999 14.2761 13.2239 14.5001 13.4999 14.5001C13.7759 14.5001 13.9999 14.2761 13.9999 14.0001V3.00012C13.9999 2.93512 13.9864 2.87013 13.9614 2.80912Z" fill="#101010"/>
</svg>
