<svg width="15" height="15" viewBox="0 0 15 15" fill="none" xmlns="http://www.w3.org/2000/svg">
<path d="M13.497 10.2631C13.497 12.3492 12.2534 13.5928 10.1673 13.5928H9.4853C9.17009 13.5928 8.9122 13.3349 8.9122 13.0197V9.71294C8.9122 9.5582 9.03828 9.42639 9.19301 9.42639L10.2017 9.4092C10.2819 9.40347 10.3507 9.34616 10.3679 9.26593L10.5685 8.17131C10.5857 8.06815 10.5054 7.97072 10.3965 7.97072L9.17582 7.98791C9.01535 7.98791 8.88928 7.86184 8.88355 7.7071L8.86062 6.30301C8.86062 6.21131 8.93512 6.13108 9.03255 6.13108L10.408 6.10815C10.5054 6.10815 10.5799 6.03366 10.5799 5.93623L10.557 4.56079C10.557 4.46336 10.4825 4.38886 10.3851 4.38886L8.83769 4.41179C7.88635 4.42899 7.12988 5.20839 7.14707 6.15973L7.17572 7.73575C7.18145 7.89622 7.05537 8.0223 6.8949 8.02803L6.20718 8.03949C6.10975 8.03949 6.03526 8.11398 6.03526 8.21141L6.05245 9.30031C6.05245 9.39774 6.12695 9.47223 6.22437 9.47223L6.9121 9.46078C7.07256 9.46078 7.19863 9.58685 7.20436 9.74159L7.25594 13.0082C7.26167 13.3292 7.00378 13.5928 6.68284 13.5928H5.36473C3.27865 13.5928 2.03503 12.3492 2.03503 10.2574V5.46055C2.03503 3.37448 3.27865 2.13086 5.36473 2.13086H10.1673C12.2534 2.13086 13.497 3.37448 13.497 5.46055V10.2631Z" fill="#101010"/>
</svg>
