<svg width="18" height="18" viewBox="0 0 18 18" fill="none" xmlns="http://www.w3.org/2000/svg">
<path d="M7.66545 11.1193L11.1718 9.0925L7.66545 7.06569V11.1193ZM15.4754 5.82934C15.5632 6.14687 15.6241 6.5725 15.6646 7.11299C15.7119 7.65347 15.7322 8.11964 15.7322 8.525L15.7727 9.0925C15.7727 10.5721 15.6646 11.6598 15.4754 12.3557C15.3065 12.9637 14.9147 13.3556 14.3066 13.5245C13.9891 13.6123 13.4081 13.6731 12.5163 13.7136C11.638 13.7609 10.834 13.7812 10.0909 13.7812L9.01665 13.8217C6.18588 13.8217 4.42255 13.7136 3.72668 13.5245C3.11864 13.3556 2.72679 12.9637 2.55789 12.3557C2.47006 12.0381 2.40925 11.6125 2.36872 11.072C2.32142 10.5315 2.30116 10.0654 2.30116 9.66001L2.26062 9.0925C2.26062 7.61293 2.36872 6.52521 2.55789 5.82934C2.72679 5.2213 3.11864 4.82945 3.72668 4.66055C4.04421 4.57272 4.62523 4.51191 5.51703 4.47138C6.39531 4.42409 7.19928 4.40382 7.94244 4.40382L9.01665 4.36328C11.8474 4.36328 13.6108 4.47138 14.3066 4.66055C14.9147 4.82945 15.3065 5.2213 15.4754 5.82934Z" fill="#101010"/>
</svg>
