<svg width="15" height="15" viewBox="0 0 15 15" fill="none" xmlns="http://www.w3.org/2000/svg">
<path d="M10.1572 2.13086H5.3546C3.26852 2.13086 2.0249 3.37448 2.0249 5.46055V10.2574C2.0249 12.3492 3.26852 13.5928 5.3546 13.5928H10.1514C12.2375 13.5928 13.4811 12.3492 13.4811 10.2631V5.46055C13.4868 3.37448 12.2432 2.13086 10.1572 2.13086ZM7.75587 10.0854C6.52945 10.0854 5.53226 9.08826 5.53226 7.86183C5.53226 6.6354 6.52945 5.63821 7.75587 5.63821C8.9823 5.63821 9.97949 6.6354 9.97949 7.86183C9.97949 9.08826 8.9823 10.0854 7.75587 10.0854ZM11.1486 4.92757C11.12 4.99635 11.0798 5.05939 11.0283 5.1167C10.9709 5.16827 10.9079 5.20839 10.8391 5.23705C10.7704 5.2657 10.6959 5.28289 10.6214 5.28289C10.4666 5.28289 10.3233 5.22558 10.2145 5.1167C10.1629 5.05939 10.1228 4.99635 10.0941 4.92757C10.0655 4.8588 10.0483 4.7843 10.0483 4.7098C10.0483 4.63529 10.0655 4.56079 10.0941 4.49202C10.1228 4.41752 10.1629 4.36021 10.2145 4.3029C10.3463 4.17109 10.5469 4.10804 10.7302 4.14816C10.7704 4.15389 10.8047 4.16535 10.8391 4.18255C10.8735 4.19401 10.9079 4.2112 10.9423 4.23413C10.9709 4.25132 10.9996 4.27997 11.0283 4.3029C11.0798 4.36021 11.12 4.41752 11.1486 4.49202C11.1773 4.56079 11.1945 4.63529 11.1945 4.7098C11.1945 4.7843 11.1773 4.8588 11.1486 4.92757Z" fill="#101010"/>
</svg>
