<?xml version="1.0" encoding="UTF-8"?>
<svg width="20px" height="20px" viewBox="0 0 20 20" version="1.1" xmlns="http://www.w3.org/2000/svg" xmlns:xlink="http://www.w3.org/1999/xlink">
    <title>insurance</title>
    <g id="Page-1" stroke="none" stroke-width="1" fill="none" fill-rule="evenodd">
        <g id="insurance" fill="#000000" fill-rule="nonzero">
            <path d="M10,0 C6.13,0 3,3.13 3,7 L3,9 C3,9.55 3.45,10 4,10 L16,10 C16.55,10 17,9.55 17,9 L17,7 C17,3.13 13.87,0 10,0 Z M5,7 C5,4.24 7.24,2 10,2 C12.76,2 15,4.24 15,7 L15,8 L5,8 L5,7 Z" id="Shape"></path>
            <path d="M18,11 L2,11 C0.9,11 0,11.9 0,13 L0,17 C0,18.1 0.9,19 2,19 L18,19 C19.1,19 20,18.1 20,17 L20,13 C20,11.9 19.1,11 18,11 Z M10,16.5 C8.62,16.5 7.5,15.38 7.5,14 C7.5,12.62 8.62,11.5 10,11.5 C11.38,11.5 12.5,12.62 12.5,14 C12.5,15.38 11.38,16.5 10,16.5 Z" id="Shape"></path>
        </g>
    </g>
</svg>
