<svg width="20" height="12" viewBox="0 0 20 12" fill="none" xmlns="http://www.w3.org/2000/svg">
<path d="M19.9436 8.19963C19.5476 6.17563 18.5356 4.28363 17.0396 2.87563L16.8636 3.05163L14.3556 5.55963C15.1476 6.35163 15.6756 7.36363 15.9396 8.46363C15.9836 8.72763 16.2476 8.94763 16.5556 8.94763H19.3276C19.5036 8.94763 19.7236 8.85963 19.8116 8.72763C19.9436 8.59563 19.9876 8.41963 19.9436 8.19963ZM10.4396 0.0596252V3.79963C11.6276 3.88763 12.7716 4.32763 13.6956 5.03163L16.3796 2.34763C14.7076 0.939626 12.5956 0.147625 10.4396 0.0596252ZM3.13556 3.09563L2.95956 2.87563C1.46356 4.32763 0.451562 6.21963 0.0555625 8.19963C0.0115625 8.37563 0.0555625 8.59563 0.187562 8.72763C0.319562 8.85963 0.495562 8.94763 0.671562 8.94763H3.44356C3.75156 8.94763 4.01556 8.72763 4.05956 8.46363C4.32356 7.36363 4.85156 6.35163 5.64356 5.55963L3.13556 3.09563ZM3.61956 2.30363L6.30356 4.98763C6.30356 4.98763 6.34756 4.94363 6.39156 4.94363C6.39156 4.67963 6.43556 4.45963 6.61156 4.28363C6.83156 4.01963 7.13956 3.84363 7.49156 3.84363C7.71156 3.84363 7.93156 3.93163 8.15156 4.06363C8.63556 3.88763 9.11956 3.79963 9.60356 3.75563V0.015625C7.40356 0.147625 5.29156 0.939625 3.61956 2.30363Z" fill="#101010"/>
<path d="M9.99949 6.92344C9.86749 6.92344 9.69149 6.92344 9.55949 6.96744C8.94349 6.30744 7.97549 5.20744 7.62349 4.81144C7.49149 4.67944 7.22749 4.81144 7.27149 4.98744C7.35949 5.29544 7.22749 4.81144 8.10749 7.80344C7.71149 8.24344 7.49149 8.81544 7.49149 9.43144C7.49149 10.7954 8.63549 11.9394 9.99949 11.9394C11.4075 11.9394 12.5075 10.7954 12.5075 9.43144C12.5075 8.02344 11.3635 6.92344 9.99949 6.92344ZM9.99949 10.5314C9.42749 10.5314 8.98749 10.0914 8.98749 9.51944C8.98749 8.94744 9.47149 8.50744 9.99949 8.50744C10.5715 8.50744 11.0115 8.94744 11.0115 9.51944C11.0115 10.0474 10.5715 10.5314 9.99949 10.5314Z" fill="#101010"/>
</svg>
