<svg width="20" height="12" viewBox="0 0 20 12" fill="none" xmlns="http://www.w3.org/2000/svg">
<path d="M19.944 8.19963C19.548 6.17563 18.536 4.28363 17.0401 2.87563L16.864 3.05163L14.3561 5.55963C15.1481 6.35163 15.6761 7.36363 15.9401 8.46363C15.984 8.72763 16.2481 8.94763 16.5561 8.94763H19.3281C19.504 8.94763 19.724 8.85963 19.812 8.72763C19.944 8.59563 19.988 8.41963 19.944 8.19963ZM10.4401 0.0596252V3.79963C11.628 3.88763 12.7721 4.32763 13.6961 5.03163L16.3801 2.34763C14.708 0.939626 12.5961 0.147625 10.4401 0.0596252ZM3.13605 3.09563L2.96005 2.87563C1.46405 4.32763 0.452051 6.21963 0.0560508 8.19963C0.0120508 8.37563 0.0560508 8.59563 0.188051 8.72763C0.320051 8.85963 0.496051 8.94763 0.672051 8.94763H3.44405C3.75205 8.94763 4.01605 8.72763 4.06005 8.46363C4.32405 7.36363 4.85205 6.35163 5.64405 5.55963L3.13605 3.09563ZM3.62005 2.30363L6.30405 4.98763C6.30405 4.98763 6.34805 4.94363 6.39205 4.94363C6.39205 4.67963 6.43605 4.45963 6.61205 4.28363C6.83205 4.01963 7.14005 3.84363 7.49205 3.84363C7.71205 3.84363 7.93205 3.93163 8.15205 4.06363C8.63605 3.88763 9.12005 3.79963 9.60405 3.75563V0.015625C7.40405 0.147625 5.29205 0.939625 3.62005 2.30363Z" fill="#101010"/>
<path d="M9.99998 6.92344C9.86798 6.92344 9.69198 6.92344 9.55998 6.96744C8.94398 6.30744 7.97598 5.20744 7.62398 4.81144C7.49198 4.67944 7.22798 4.81144 7.27198 4.98744C7.35998 5.29544 7.22798 4.81144 8.10798 7.80344C7.71198 8.24344 7.49198 8.81544 7.49198 9.43144C7.49198 10.7954 8.63598 11.9394 9.99998 11.9394C11.408 11.9394 12.508 10.7954 12.508 9.43144C12.508 8.02344 11.364 6.92344 9.99998 6.92344ZM9.99998 10.5314C9.42798 10.5314 8.98798 10.0914 8.98798 9.51944C8.98798 8.94744 9.47198 8.50744 9.99998 8.50744C10.572 8.50744 11.012 8.94744 11.012 9.51944C11.012 10.0474 10.572 10.5314 9.99998 10.5314Z" fill="#101010"/>
</svg>
