<?xml version="1.0" encoding="UTF-8"?>
<svg width="20px" height="20px" viewBox="0 0 20 20" version="1.1" xmlns="http://www.w3.org/2000/svg" xmlns:xlink="http://www.w3.org/1999/xlink">
    <title>phone</title>
    <g id="Page-1" stroke="none" stroke-width="1" fill="none" fill-rule="evenodd">
        <g id="phone" fill="#000000" fill-rule="nonzero">
            <path d="M17.2562,12.4688 C16.4812,12.4688 15.7375,12.3438 15.0375,12.1062 C14.6625,11.9812 14.2312,12.0938 13.9562,12.3688 L11.5312,14.2062 C8.7875,12.8312 6.6875,10.7375 5.3312,8.0125 L7.1562,5.6125 C7.4312,5.3375 7.5375,4.9062 7.4188,4.5312 C7.175,3.825 7.05,3.0812 7.05,2.3062 C7.05,1.7125 6.5625,1.225 5.9688,1.225 L2.3062,1.225 C1.7125,1.225 1.225,1.7125 1.225,2.3062 C1.225,11.7875 8.8375,19.4 18.3188,19.4 C18.9125,19.4 19.4,18.9125 19.4,18.3188 L19.4,14.6688 C19.3938,14.075 18.9062,12.4688 17.2562,12.4688 Z"></path>
        </g>
    </g>
</svg>
