<svg width="24" height="24" viewBox="0 0 24 24" fill="none" xmlns="http://www.w3.org/2000/svg">
<path d="M20.3775 17.8538C20.0945 17.3706 19.6428 17.009 19.1094 16.8386L19.0445 16.8192C18.9666 16.7943 18.8861 16.7779 18.8045 16.7705C18.3881 16.8735 17.9962 17.0582 17.6516 17.3137C17.307 17.5692 17.0165 17.8906 16.797 18.2592L16.4856 22.7024C16.437 22.7024 16.4597 22.7024 16.4856 22.7024L16.4597 23.351H16.7062C19.9072 23.351 20.5072 20.6397 20.5591 20.364C20.8251 19.3554 20.757 18.5089 20.3775 17.8538Z" fill="#101010"/>
<path d="M7.51423 22.7027L7.18991 18.2692C6.91423 18.0163 6.30126 16.8422 5.18234 16.7773C5.10115 16.787 5.02088 16.8033 4.94234 16.826H4.89693C4.3516 16.9916 3.8885 17.3563 3.59964 17.8476C3.21369 18.4963 3.15207 19.3492 3.41801 20.3579C3.46991 20.6303 4.06666 23.3449 7.27099 23.3449H7.51747L7.49153 22.6963C7.54018 22.7028 7.55964 22.7027 7.51423 22.7027Z" fill="#101010"/>
<path d="M9.5159 5.46144H10.1646V6.51874H9.06185V11.3252H14.9418V6.51874H13.8391V5.46144H14.4878C14.6523 5.4615 14.8149 5.4269 14.9651 5.35991C15.1153 5.29293 15.2497 5.19505 15.3595 5.07266C15.4693 4.95027 15.5522 4.80611 15.6026 4.64958C15.653 4.49304 15.6699 4.32764 15.6521 4.16415L15.3732 1.70252C15.3449 1.41238 15.209 1.14333 14.9924 0.948278C14.7757 0.753226 14.4939 0.64628 14.2024 0.64847H9.79807C9.50761 0.647015 9.22705 0.753873 9.01115 0.948177C8.79526 1.14248 8.65954 1.41028 8.6305 1.69928L8.35158 4.16739C8.33381 4.33088 8.35069 4.49628 8.40111 4.65282C8.45152 4.80935 8.53435 4.95351 8.6442 5.0759C8.75404 5.19829 8.88844 5.29617 9.03863 5.36316C9.18883 5.43014 9.35145 5.46474 9.5159 5.46469V5.46144ZM13.1905 6.51874H10.81V5.46144H13.1905V6.51874Z" fill="#101010"/>
<path d="M18.665 16.1386L18.7623 16.1159H18.8596H18.9277C18.6683 14.5267 18.331 11.9451 18.4834 9.89864C18.5552 9.48751 18.5431 9.06611 18.4478 8.65979C18.3524 8.25347 18.1759 7.87064 17.9288 7.53432C17.4261 6.91486 16.6315 6.56134 15.5904 6.5127V17.7959H8.40988V6.53215C7.36231 6.59053 6.5742 6.93432 6.0715 7.55378C5.82381 7.88985 5.64671 8.27257 5.55084 8.6789C5.45497 9.08523 5.44232 9.50676 5.51366 9.9181C5.66609 11.9646 5.3288 14.5462 5.06934 16.1354C5.08443 16.1369 5.09964 16.1369 5.11474 16.1354H5.17312H5.2315C6.40231 16.2035 7.10934 17.1084 7.50177 17.6078C7.54907 17.6754 7.59995 17.7403 7.6542 17.8024L7.82609 17.9711L7.86177 18.2305V18.4576L8.20555 23.3224H8.18609V23.3516H15.8077L15.8596 22.0543H15.892L16.1742 18.0586L16.2585 17.9224C16.5202 17.4795 16.868 17.0935 17.2813 16.7871C17.6946 16.4807 18.1651 16.2602 18.665 16.1386Z" fill="#101010"/>
<path d="M9.05859 11.9736H14.9418V17.1466H9.05859V11.9736Z" fill="#101010"/>
</svg>
