<svg width="24" height="24" viewBox="0 0 24 24" fill="none" xmlns="http://www.w3.org/2000/svg">
<g clip-path="url(#clip0_2_332)">
<path d="M23.2969 10.9594H21.414C21.3571 10.9594 21.3007 10.9618 21.2446 10.9655C20.8217 10.5881 20.3538 10.2764 19.8534 10.0364C20.9947 9.22577 21.7407 7.89368 21.7407 6.39056C21.7407 3.92651 19.736 1.92188 17.272 1.92188C14.8077 1.92188 12.8031 3.92651 12.8031 6.39056C12.8031 7.57471 13.2664 8.65265 14.0208 9.453H10.7325C11.4869 8.65265 11.95 7.57471 11.95 6.39056C11.95 3.92651 9.94537 1.92188 7.48132 1.92188C5.01727 1.92188 3.01245 3.92651 3.01245 6.39056C3.01245 7.77246 3.64307 9.0097 4.63147 9.8302C3.94702 10.086 3.31201 10.4685 2.75519 10.9655C2.69916 10.9618 2.64294 10.9594 2.586 10.9594H0.703125C0.314758 10.9594 0 11.2742 0 11.6625V15.4281C0 15.8165 0.314758 16.1312 0.703125 16.1312H0.753113V21.4532C0.753113 21.8414 1.06787 22.1563 1.45624 22.1563H22.5438C22.9321 22.1563 23.2469 21.8414 23.2469 21.4532V16.1312H23.2969C23.6852 16.1312 24 15.8165 24 15.4281V11.6625C24 11.2742 23.6852 10.9594 23.2969 10.9594ZM22.5938 14.725H21.414C20.7636 14.725 20.2343 14.1958 20.2343 13.5452C20.2343 12.8948 20.7636 12.3657 21.414 12.3657H22.5938V14.725ZM14.2094 6.39056C14.2094 4.70197 15.5832 3.32812 17.2718 3.32812C18.9604 3.32812 20.3344 4.70197 20.3344 6.39056C20.3344 8.07935 18.9606 9.453 17.272 9.453C15.5832 9.453 14.2094 8.07935 14.2094 6.39056ZM7.48132 3.32812C9.16992 3.32812 10.5438 4.70197 10.5438 6.39056C10.5438 8.07916 9.16992 9.453 7.48132 9.453C5.79254 9.453 4.4187 8.07935 4.4187 6.39056C4.4187 4.70197 5.79254 3.32812 7.48132 3.32812ZM1.40625 12.3657H2.586C3.23639 12.3657 3.76575 12.8948 3.76575 13.5454C3.76575 14.1958 3.23639 14.725 2.586 14.725H1.40625V12.3657ZM2.15936 16.1312H2.586C4.01184 16.1312 5.172 14.9713 5.172 13.5452C5.172 12.7557 4.81567 12.048 4.2561 11.5734H4.27277C4.99951 11.1085 5.84473 10.8594 6.72821 10.8594H13.426C12.1249 11.9562 11.2969 13.5972 11.2969 15.4281V20.7501H5.17181V17.6874C5.17181 17.2993 4.85706 16.9843 4.46869 16.9843C4.08051 16.9843 3.76556 17.2993 3.76556 17.6874V20.7499H2.15936V16.1312ZM21.8406 20.7499H20.2343V17.6874C20.2343 17.2993 19.9195 16.9843 19.5311 16.9843C19.1429 16.9843 18.828 17.2993 18.828 17.6874V20.7499H12.7031V15.4281C12.7031 12.9089 14.7526 10.8594 17.272 10.8594C18.1595 10.8594 19.0082 11.1107 19.7368 11.5794C19.1812 12.0542 18.8282 12.759 18.8282 13.5454C18.8282 14.9713 19.9882 16.1312 21.4142 16.1312H21.8406V20.7499Z" fill="black"/>
</g>
<defs>
<clipPath id="clip0_2_332">
<rect width="24" height="24" fill="white"/>
</clipPath>
</defs>
</svg>
