<svg width="12" height="22" viewBox="0 0 12 22" fill="none" xmlns="http://www.w3.org/2000/svg">
<path d="M9.8833 5.17773H7.93896V1.28906H8.58887C8.94482 1.28906 9.2334 1.00048 9.2334 0.644531C9.2334 0.288578 8.94482 0 8.58887 0H3.41113C3.05518 0 2.7666 0.288578 2.7666 0.644531C2.7666 1.00048 3.05518 1.28906 3.41113 1.28906H4.06103V5.17773H2.1167C1.04755 5.17773 0.177734 6.04755 0.177734 7.1167V17.4722C0.177734 18.3661 0.786043 19.1203 1.61031 19.3436C1.52154 19.5657 1.47217 19.8076 1.47217 20.061C1.47217 21.1302 2.34198 22 3.41113 22C4.48028 22 5.3501 21.1302 5.3501 20.061C5.3501 19.8331 5.31027 19.6144 5.23769 19.4111H6.76226C6.68969 19.6144 6.64986 19.8331 6.64986 20.061C6.64986 21.1302 7.51967 22 8.58882 22C9.65797 22 10.5278 21.1302 10.5278 20.061C10.5278 19.8076 10.4784 19.5657 10.3896 19.3436C11.214 19.1203 11.8222 18.3661 11.8222 17.4722V7.1167C11.8223 6.04755 10.9524 5.17773 9.8833 5.17773ZM5.3501 1.28906H6.6499V5.17773H5.3501V1.28906ZM4.06103 20.061C4.06103 20.4194 3.76949 20.7109 3.41113 20.7109C3.05277 20.7109 2.76123 20.4194 2.76123 20.061C2.76123 19.7027 3.05277 19.4111 3.41113 19.4111C3.76949 19.4111 4.06103 19.7027 4.06103 20.061ZM8.58887 20.7109C8.23051 20.7109 7.93896 20.4194 7.93896 20.061C7.93896 19.7027 8.23051 19.4111 8.58887 19.4111C8.94723 19.4111 9.23877 19.7027 9.23877 20.061C9.23877 20.4194 8.94723 20.7109 8.58887 20.7109ZM10.5332 17.4722C10.5332 17.8305 10.2417 18.1221 9.8833 18.1221H2.1167C1.75834 18.1221 1.4668 17.8305 1.4668 17.4722V7.1167C1.4668 6.75834 1.75834 6.4668 2.1167 6.4668H9.8833C10.2417 6.4668 10.5332 6.75834 10.5332 7.1167V17.4722Z" fill="#101010"/>
<path d="M3.41113 7.7666C3.05518 7.7666 2.7666 8.05518 2.7666 8.41113V16.1777C2.7666 16.5337 3.05518 16.8223 3.41113 16.8223C3.76709 16.8223 4.05566 16.5337 4.05566 16.1777V8.41113C4.05566 8.05518 3.76709 7.7666 3.41113 7.7666Z" fill="#101010"/>
<path d="M6 7.7666C5.64405 7.7666 5.35547 8.05518 5.35547 8.41113V16.1777C5.35547 16.5337 5.64405 16.8223 6 16.8223C6.35595 16.8223 6.64453 16.5337 6.64453 16.1777V8.41113C6.64453 8.05518 6.35595 7.7666 6 7.7666Z" fill="#101010"/>
<path d="M8.58887 7.7666C8.23291 7.7666 7.94434 8.05518 7.94434 8.41113V16.1777C7.94434 16.5337 8.23291 16.8223 8.58887 16.8223C8.94482 16.8223 9.2334 16.5337 9.2334 16.1777V8.41113C9.2334 8.05518 8.94482 7.7666 8.58887 7.7666Z" fill="#101010"/>
</svg>
