<?xml version="1.0" encoding="UTF-8"?>
<svg width="20px" height="20px" viewBox="0 0 20 20" version="1.1" xmlns="http://www.w3.org/2000/svg" xmlns:xlink="http://www.w3.org/1999/xlink">
    <title>tag</title>
    <g id="Page-1" stroke="none" stroke-width="1" fill="none" fill-rule="evenodd">
        <g id="tag" fill="#000000" fill-rule="nonzero">
            <path d="M19.41,9.58 L10.41,0.58 C10.05,0.22 9.55,0 9,0 L2,0 C0.9,0 0,0.9 0,2 L0,9 C0,9.55 0.22,10.05 0.59,10.42 L9.59,19.42 C9.95,19.78 10.45,20 11,20 C11.55,20 12.05,19.78 12.41,19.41 L19.41,12.41 C19.78,12.05 20,11.55 20,11 C20,10.45 19.77,9.94 19.41,9.58 Z M3.5,5 C2.67,5 2,4.33 2,3.5 C2,2.67 2.67,2 3.5,2 C4.33,2 5,2.67 5,3.5 C5,4.33 4.33,5 3.5,5 Z" id="Shape"></path>
        </g>
    </g>
</svg>
