<svg width="26" height="26" viewBox="0 0 26 26" fill="none" xmlns="http://www.w3.org/2000/svg">
<rect width="26" height="26" rx="13" fill="#D8F4DB"/>
<path d="M17.0837 8.83416C17.2774 8.64976 17.5352 8.54781 17.8026 8.54983C18.07 8.55186 18.3262 8.65769 18.5171 8.845C18.708 9.03232 18.8186 9.28646 18.8257 9.5538C18.8328 9.82114 18.7357 10.0808 18.555 10.2779L13.0687 17.1392C12.9744 17.2408 12.8605 17.3223 12.734 17.3789C12.6074 17.4355 12.4707 17.466 12.3321 17.4686C12.1934 17.4711 12.0557 17.4457 11.9271 17.3939C11.7986 17.342 11.6818 17.2647 11.5837 17.1667L7.94547 13.5284C7.84415 13.434 7.76289 13.3201 7.70652 13.1936C7.65016 13.0671 7.61985 12.9306 7.61741 12.7921C7.61497 12.6537 7.64044 12.5161 7.6923 12.3877C7.74417 12.2593 7.82137 12.1427 7.9193 12.0447C8.01722 11.9468 8.13387 11.8696 8.26228 11.8177C8.39068 11.7659 8.52822 11.7404 8.66669 11.7428C8.80516 11.7453 8.94171 11.7756 9.06821 11.832C9.19471 11.8883 9.30856 11.9696 9.40297 12.0709L12.2822 14.9488L17.0576 8.86441L17.0837 8.83416Z" fill="#101010"/>
</svg>
