<svg width="26" height="26" viewBox="0 0 26 26" fill="none" xmlns="http://www.w3.org/2000/svg">
<rect width="26" height="26" rx="13" fill="#5EDD5B"/>
<path d="M17.0837 8.83416C17.2774 8.64976 17.5351 8.54781 17.8025 8.54983C18.07 8.55186 18.3261 8.65769 18.517 8.845C18.7079 9.03232 18.8186 9.28646 18.8256 9.5538C18.8327 9.82114 18.7356 10.0808 18.5549 10.2779L13.0687 17.1392C12.9743 17.2408 12.8605 17.3223 12.7339 17.3789C12.6073 17.4355 12.4706 17.466 12.332 17.4686C12.1934 17.4711 12.0557 17.4457 11.9271 17.3939C11.7985 17.342 11.6817 17.2647 11.5837 17.1667L7.94541 13.5284C7.84409 13.434 7.76283 13.3201 7.70646 13.1936C7.6501 13.0671 7.61979 12.9306 7.61735 12.7921C7.6149 12.6537 7.64038 12.5161 7.69224 12.3877C7.74411 12.2593 7.82131 12.1427 7.91923 12.0447C8.01716 11.9468 8.13381 11.8696 8.26221 11.8177C8.39062 11.7659 8.52816 11.7404 8.66663 11.7428C8.8051 11.7453 8.94165 11.7756 9.06815 11.832C9.19465 11.8883 9.3085 11.9696 9.40291 12.0709L12.2822 14.9488L17.0575 8.86441L17.0837 8.83416Z" fill="#101010"/>
</svg>
