<svg width="14" height="14" viewBox="0 0 14 14" fill="none" xmlns="http://www.w3.org/2000/svg">
    <path d="M2.625 12.25C2.625 12.25 1.75 12.25 1.75 11.375C1.75 10.5 2.625 7.875 7 7.875C11.375 7.875 12.25 10.5 12.25 11.375C12.25 12.25 11.375 12.25 11.375 12.25H2.625ZM7 7C7.69619 7 8.36387 6.72344 8.85616 6.23116C9.34844 5.73887 9.625 5.07119 9.625 4.375C9.625 3.67881 9.34844 3.01113 8.85616 2.51884C8.36387 2.02656 7.69619 1.75 7 1.75C6.30381 1.75 5.63613 2.02656 5.14384 2.51884C4.65156 3.01113 4.375 3.67881 4.375 4.375C4.375 5.07119 4.65156 5.73887 5.14384 6.23116C5.63613 6.72344 6.30381 7 7 7Z" fill="#101010"/>
</svg>
