<svg width="22" height="22" viewBox="0 0 22 22" fill="none" xmlns="http://www.w3.org/2000/svg">
<g clip-path="url(#clip0_35_22206)">
<path d="M14.333 10.5L13.0997 10.0666C12.9997 9.73328 12.8663 9.39995 12.6663 9.06662L13.233 7.89995C13.2997 7.76662 13.2663 7.59995 13.1663 7.53328L11.733 6.09995C11.633 5.99995 11.4663 5.96662 11.3663 6.03328L10.1997 6.59995C9.86634 6.43328 9.53301 6.29995 9.19967 6.16662L8.76634 4.93328C8.73301 4.79995 8.59967 4.69995 8.46634 4.69995H6.43301C6.29967 4.69995 6.16634 4.79995 6.09967 4.93328L5.66634 6.16662C5.33301 6.26662 4.99967 6.39995 4.66634 6.59995L3.53301 5.99995C3.39967 5.93328 3.26634 5.96662 3.13301 6.06662L1.69967 7.49995C1.59967 7.59995 1.56634 7.76662 1.63301 7.86662L2.19967 9.03328C2.03301 9.36662 1.89967 9.69995 1.79967 10.0333L0.566341 10.4666C0.433008 10.5333 0.333008 10.6666 0.333008 10.8V12.8333C0.333008 12.9666 0.433008 13.1 0.566341 13.1666L1.79967 13.5999C1.89967 13.9333 2.03301 14.2666 2.23301 14.5999L1.66634 15.7666C1.59967 15.8999 1.63301 16.0666 1.73301 16.1666L3.16634 17.5999C3.26634 17.6999 3.43301 17.7333 3.56634 17.6666L4.73301 17.0999C5.06634 17.2666 5.39967 17.4 5.73301 17.5333L6.16634 18.7666C6.19967 18.8999 6.33301 19 6.46634 19H8.49967C8.63301 19 8.76634 18.8999 8.79967 18.7666L9.23301 17.5333C9.56634 17.4333 9.89968 17.2999 10.233 17.0999L11.3997 17.6666C11.533 17.7333 11.6663 17.6999 11.7663 17.5999L13.1997 16.1666C13.2997 16.0666 13.333 15.8999 13.2663 15.7666L12.6663 14.5666C12.833 14.2333 12.9663 13.9 13.0997 13.5666L14.333 13.1333C14.4663 13.1 14.5663 12.9666 14.5663 12.8V10.7666C14.5663 10.6666 14.4663 10.5333 14.333 10.5ZM7.43301 14.6666C5.86634 14.6666 4.59967 13.4 4.59967 11.8333C4.59967 10.2666 5.86634 8.99995 7.43301 8.99995C8.99967 8.99995 10.2663 10.2666 10.2663 11.8333C10.2663 13.3666 8.99967 14.6666 7.43301 14.6666Z" fill="#D6D7D8"/>
<path d="M21.4332 3.86668L20.7665 3.63335C20.6999 3.46668 20.6332 3.30002 20.5665 3.16668L20.8665 2.53335C20.9332 2.40002 20.8999 2.26668 20.7999 2.13335L19.9999 1.30002C19.8999 1.20002 19.7332 1.16668 19.6332 1.23335L18.9999 1.53335C18.8332 1.46668 18.6999 1.40002 18.5332 1.33335L18.2999 0.666683C18.2665 0.53335 18.1332 0.43335 17.9999 0.43335H16.7999C16.6665 0.43335 16.5332 0.53335 16.4665 0.666683L16.2332 1.33335C16.0665 1.40002 15.8999 1.46668 15.7665 1.53335L15.1332 1.23335C14.9999 1.16668 14.8332 1.20002 14.7332 1.30002L13.8999 2.13335C13.7999 2.23335 13.7665 2.40002 13.8332 2.53335L14.1332 3.16668C14.0665 3.33335 13.9999 3.46668 13.9332 3.63335L13.2665 3.86668C13.1332 3.90002 13.0332 4.03335 13.0332 4.16668V5.36668C13.0332 5.50002 13.1332 5.63335 13.2665 5.66668L13.9332 5.90002C13.9999 6.06668 14.0665 6.23335 14.1332 6.40002L13.8332 7.00002C13.7665 7.13335 13.7999 7.30002 13.8999 7.40002L14.7332 8.23335C14.8332 8.33335 14.9999 8.36668 15.1332 8.30002L15.7665 8.00002C15.9332 8.06668 16.0999 8.13335 16.2332 8.20002L16.4665 8.86668C16.4999 9.00002 16.6332 9.10002 16.7999 9.10002H17.9999C18.1332 9.10002 18.2665 9.00002 18.2999 8.86668L18.5332 8.20002C18.6999 8.13335 18.8665 8.06668 18.9999 8.00002L19.6332 8.30002C19.7665 8.36668 19.8999 8.33335 20.0332 8.23335L20.8665 7.40002C20.9665 7.30002 20.9999 7.13335 20.9332 7.00002L20.6332 6.36668C20.6999 6.20002 20.7665 6.03335 20.8332 5.86668L21.4999 5.63335C21.6332 5.60002 21.7332 5.46668 21.7332 5.33335V4.13335C21.6665 4.03335 21.5665 3.90002 21.4332 3.86668ZM17.3665 6.43335C16.4332 6.43335 15.6999 5.70002 15.6999 4.76668C15.6999 3.86668 16.4332 3.10002 17.3665 3.10002C18.2665 3.10002 19.0332 3.83335 19.0332 4.76668C19.0332 5.70002 18.2665 6.43335 17.3665 6.43335Z" fill="#D6D7D8"/>
<path d="M21.4325 14.7333L20.4992 14.4C20.4325 14.1333 20.3325 13.9 20.1992 13.6666L20.6325 12.7666C20.6992 12.6333 20.6659 12.5 20.5659 12.4L19.4325 11.2666C19.3325 11.1666 19.1659 11.1333 19.0325 11.2L18.1659 11.6666C17.9325 11.5333 17.6659 11.4333 17.4325 11.3666L17.1325 10.4333C17.0992 10.3 16.9659 10.2 16.7992 10.2H15.1992C15.1325 10.2 15.0992 10.2 15.0325 10.2333C15.1325 10.4 15.1992 10.6 15.1992 10.8V12.8333C15.1992 13.2666 14.9325 13.6333 14.5325 13.7666L13.5992 14.1C13.5325 14.2666 13.4659 14.4333 13.3992 14.5666L13.8325 15.4333C14.0325 15.8333 13.9659 16.2666 13.6325 16.5999L12.1992 18.0333C12.0325 18.1999 11.8325 18.2999 11.6325 18.3333L11.3325 18.9333C11.2659 19.0666 11.2992 19.2 11.3992 19.3L12.5325 20.4333C12.6325 20.5333 12.7992 20.5666 12.9325 20.4999L13.8325 20.0666C14.0659 20.2 14.3325 20.2999 14.5659 20.3666L14.8992 21.3C14.9325 21.4333 15.0659 21.5333 15.2325 21.5333H16.8325C16.9659 21.5333 17.0992 21.4333 17.1659 21.3L17.4659 20.3666C17.7325 20.2666 17.9659 20.1666 18.1992 20.0666L19.0992 20.4999C19.2325 20.5666 19.3659 20.5333 19.4992 20.4333L20.6325 19.3C20.7325 19.2 20.7659 19.0333 20.6992 18.9333L20.2659 18.0333C20.3992 17.7999 20.4992 17.5333 20.5659 17.3L21.4992 16.9666C21.6325 16.9333 21.7325 16.8 21.7325 16.6333V15.0333C21.6659 14.9 21.5659 14.8 21.4325 14.7333ZM16.3325 18.0999C15.0992 18.0999 14.0992 17.0999 14.0992 15.8666C14.0992 14.6333 15.0992 13.6333 16.3325 13.6333C17.5659 13.6333 18.5659 14.6333 18.5659 15.8666C18.5659 17.0999 17.5659 18.0999 16.3325 18.0999Z" fill="#D6D7D8"/>
</g>
<defs>
<clipPath id="clip0_35_22206">
<rect width="22" height="22" fill="white"/>
</clipPath>
</defs>
</svg>
