<svg width="64" height="31" viewBox="0 0 64 31" fill="none" xmlns="http://www.w3.org/2000/svg">
<g clip-path="url(#clip0_498_23654)">
<path fill-rule="evenodd" clip-rule="evenodd" d="M15.9132 26.6417C15.6941 26.4608 15.3849 25.8661 15.2817 25.6463L11.7768 17.2198H10.7588L7.53751 25.2589C7.39573 25.6208 6.81137 26.6676 6.69981 26.8356C6.59688 26.9907 6.44216 27.249 6.82863 27.249H8.09166L9.10002 24.7157H12.7819L13.8387 27.249H15.8617C16.1579 27.249 16.1974 26.8765 15.9132 26.6417ZM9.613 23.4775L10.9016 20.1945L12.2676 23.4775H9.613ZM45.5724 26.6417C45.3533 26.4608 45.0438 25.8661 44.9409 25.6463L41.4357 17.2198H40.4177L37.1967 25.2589C37.0546 25.6208 36.4703 26.6676 36.359 26.8356C36.2558 26.9907 36.1017 27.249 36.4882 27.249H37.7509L38.7592 24.7157H42.4414L43.4979 27.249H45.5213C45.8168 27.249 45.8563 26.8765 45.5724 26.6417ZM39.2722 23.4775L40.5608 20.1945L41.9264 23.4775H39.2722ZM3.09102 18.5559V25.4833C3.09102 28.4815 1.08093 29.5158 0.771484 29.9032H3.03955C4.31088 29.0449 5.1011 27.1946 5.1011 26.0517V17.2112H3.09102C2.85893 17.2112 2.73044 17.3666 2.83337 17.6249C2.93629 17.8839 3.06545 18.1166 3.09102 18.5559ZM23.2935 22.4406H25.3039V26.7317C24.7109 27.1195 23.8861 27.4814 22.1081 27.4814C20.3298 27.4814 16.799 26.6285 16.799 22.1567C16.799 17.6847 21.206 17.0645 22.1855 17.0645C23.165 17.0645 24.4536 17.2969 25.1492 17.5814V19.0549C24.608 18.874 23.8091 18.2797 22.3143 18.2797C20.6134 18.2797 18.9383 19.6752 18.9124 22.3121C18.8865 24.9487 20.7422 27.0422 23.2935 26.1374V23.5011C23.2805 23.2169 23.242 23.01 23.1132 22.8291C23.0169 22.694 22.9585 22.4406 23.2935 22.4406ZM35.3228 24.198V18.6021C35.3357 18.3179 35.5678 17.7879 35.697 17.607C35.7929 17.4722 35.8514 17.2192 35.516 17.2192H33.996C33.6606 17.2192 33.7197 17.4722 33.8157 17.607C33.9442 17.7879 34.1763 18.3179 34.1892 18.6021V23.5004C34.1892 24.974 33.1321 26.2921 31.612 26.2921C30.0914 26.2921 29.4469 24.715 29.4469 23.8883V17.2192H27.4368C27.1018 17.2192 27.1602 17.4722 27.2562 17.607C27.3854 17.7879 27.4239 17.9945 27.4368 18.2787V24.0948C27.4368 25.8525 29.3695 27.4552 31.6117 27.4552C33.8542 27.4552 35.3228 25.4906 35.3228 24.198ZM49.5929 25.6334C49.5929 25.827 49.748 26.5896 49.8509 26.8353C49.9542 27.0807 49.8121 27.2487 49.5929 27.2487H47.5832V18.279C47.5702 17.9948 47.5314 17.7879 47.4022 17.6073C47.3069 17.4725 47.2478 17.2195 47.5832 17.2195H50.5209C51.2687 17.2195 53.8199 17.1421 53.8458 20.0112C53.8717 20.7865 53.8458 21.4847 52.6605 22.2859C52.4284 22.441 52.2993 22.6478 52.4802 22.9579C52.6605 23.268 54.065 25.7622 54.065 25.7622C54.2964 26.1241 54.6882 26.6647 54.825 26.7702C54.9923 26.8997 55.0441 27.2484 54.7609 27.2484H52.6864L50.2248 22.7766C50.0704 22.4924 50.0704 22.2334 50.431 22.1305C50.8855 22 51.8616 22.0531 51.8616 19.9591C51.8616 18.0074 50.5213 18.2402 50.0836 18.2402C49.6454 18.2402 49.5933 18.5632 49.5933 19.0284L49.5929 25.6334ZM6.0673 28.8102V29.4819H62.6618V28.8102H6.0673Z" fill="#F2F2F2"/>
<path fill-rule="evenodd" clip-rule="evenodd" d="M61.7159 15.5087H59.9508C58.9697 15.5333 58.4819 15.0047 58.2668 14.8307C52.1037 10.3905 40.609 5.35003 30.2491 1.86077C28.9087 1.44707 26.9242 1.16285 25.6874 1.16285C24.4506 1.16285 23.8576 1.05959 22.569 1.11106C21.3329 1.16053 20.0433 1.36937 19.3218 1.57622C18.6003 1.78308 16.9767 2.19645 16.8993 3.17891C16.2808 3.64408 15.6496 4.27759 15.3916 4.5359C15.1336 4.79422 15.0437 5.29823 15.559 5.86699C16.0743 6.43542 16.6932 7.00418 17.1052 6.74587C17.5172 6.48755 17.4143 6.17711 17.569 5.86699C17.7238 5.55688 18.2394 5.09171 18.7547 5.66014C19.27 6.22857 18.9479 6.47427 18.6514 6.74587C18.3769 6.99721 17.8267 7.46969 18.1876 7.93485C18.5482 8.40002 18.9609 8.55541 19.5277 8.1417C19.9437 7.83823 21.0563 7.20074 21.7011 6.84182C21.8598 6.74554 22.0534 6.51312 22.7589 6.79833C23.5183 7.08951 24.6917 7.61179 25.1844 7.88306L24.1149 8.37412C23.5478 8.73603 23.0581 9.75734 23.0066 10.1189C22.9552 10.6873 23.1614 11.5021 23.9343 12.1738H25.6094L26.6144 10.7265L26.5371 10.5715C27.8257 10.4161 31.3309 11.4762 32.9804 10.8298C34.1139 11.295 36.1243 11.5536 39.8354 11.1917C40.5054 11.1399 41.4201 10.9978 41.9869 11.7346C42.5733 12.4956 45.4529 15.5343 46.3809 15.8444C47.3089 16.1548 51.1747 16.1548 52.1798 16.3354C53.048 16.4918 53.391 16.3354 54.1128 17.1625L55.6587 18.5325C55.839 18.7393 56.3806 19.1401 56.9991 19.1401H58.0686C58.6871 19.0883 59.0218 18.649 59.1769 18.132H61.8052C62.6299 18.132 62.8883 17.3953 62.8883 16.7232C62.8883 16.0512 62.4374 15.5087 61.7159 15.5087ZM61.7288 17.5125H59.242C59.0998 16.4135 58.288 16.2594 57.8242 16.2328C57.373 16.2073 57.0253 16.0263 56.8192 15.8968C56.8192 15.8968 55.1441 14.3974 54.6799 13.9063C54.2164 13.4153 53.907 13.2602 53.4687 13.2602H51.9487C51.6392 13.2602 51.278 13.2861 50.7627 12.5882C50.2477 11.8899 48.9332 10.7787 48.5979 10.5462C48.2632 10.3135 48.1855 10.5721 48.3917 10.7531C48.572 10.934 49.4226 11.4769 49.9383 12.3299C50.4539 13.1829 50.8915 13.6225 51.2527 13.8034C51.5615 14.0103 52.5154 13.984 53.0822 13.984C53.6496 13.984 53.8558 14.0358 54.3197 14.501C54.7835 14.9662 55.8403 15.8968 56.1239 16.2073C56.4074 16.5174 56.8969 16.8016 57.5928 16.8016C58.2887 16.8016 58.6237 17.2409 58.5978 17.6546C58.5739 18.0424 58.3657 18.4817 58.0563 18.4817H56.948C56.7677 18.4817 56.3553 18.2233 56.2521 18.1197C55.8915 17.8614 54.9894 17.0858 54.4741 16.543C53.9588 16.0001 53.4435 15.8447 52.7479 15.7418C52.0519 15.6382 49.165 15.509 48.5212 15.4835C47.8767 15.4576 46.8972 15.4576 46.2016 15.018C45.5173 14.5857 42.7997 11.6061 42.3359 11.0632C41.7943 10.4426 40.9832 10.5203 40.4934 10.5074C35.6738 11.0373 33.9598 10.5462 33.4445 10.2358L33.9472 9.36987C35.4549 9.71883 37.5165 9.38282 37.8004 9.30546C38.0839 9.22776 38.0318 8.94355 37.7486 8.99501C37.1048 9.07271 34.2955 8.73669 34.0113 8.6849C33.9861 7.96108 32.3621 5.78963 32.1559 5.37626C31.9498 4.96256 32.1307 4.70424 32.3362 4.52329C32.5424 4.34233 32.5424 4.10991 32.3621 4.10991C31.6151 4.18728 31.4344 4.78193 31.5892 5.50575C31.7436 6.22957 33.3413 8.32299 33.2383 8.81439C33.1351 9.30546 32.6457 9.99043 32.3621 10.2746C30.9706 10.6107 27.8781 9.78357 26.0998 9.83504C25.4168 9.85496 25.5327 10.4426 25.7777 10.6495L25.2106 11.4766H24.3988C23.9605 11.3471 23.8061 10.6751 23.7285 10.3391C23.7484 10.1209 23.9087 9.48608 24.4499 9.02091C25.5453 8.07928 29.9138 8.50395 30.3002 8.50395C30.6871 8.50395 30.5838 8.32299 30.352 8.2453C29.9397 8.14204 28.6896 7.80603 27.9551 7.78013C27.7878 7.28906 27.4784 6.9401 27.3751 6.46165C27.2871 6.05393 27.401 5.54393 27.5424 5.23382C27.7357 4.63916 27.3233 4.72981 27.1819 4.89781C26.9883 5.18203 26.4989 5.81553 26.473 6.2807C26.4471 6.74587 26.9239 7.57328 27.053 7.78013C26.8209 7.78013 26.4086 7.80603 26.2283 7.80603C24.9782 6.7462 22.736 6.03533 22.2981 5.88028C22.3751 5.67342 22.4913 5.45362 22.5687 5.19531C22.6461 4.93699 22.8008 4.98845 22.9811 5.04025C23.2387 5.16941 24.4499 5.60901 24.8368 5.76407C25.2232 5.91912 25.5841 5.84143 25.7644 5.68637C25.9447 5.53132 26.5374 5.01435 26.795 4.65244C27.0527 4.29054 26.6403 4.26464 26.4856 4.44559C25.9959 4.89781 25.2744 5.14351 24.8879 5.06615C24.5011 4.98846 23.2643 4.36823 22.9552 4.16138C22.2592 3.85127 22.0016 4.34233 21.9242 4.62655C21.473 5.93406 20.7389 6.54997 20.2103 6.9401C20.0556 7.06926 19.358 7.48031 19.1535 7.61212C18.9732 7.72833 18.857 7.53443 18.9343 7.41822C19.0891 7.30168 19.6558 6.71997 19.6947 6.51345C19.8235 5.76407 19.6173 5.51837 19.3082 5.18236C18.9987 4.84635 18.5993 4.73014 18.1355 4.73014C17.6716 4.73014 17.2334 5.15679 17.0786 5.31152C16.9239 5.46657 17.1175 5.77668 16.8595 5.95797C16.6019 6.13859 16.3054 5.66048 16.151 5.45362C16.486 5.06615 16.4601 4.88486 16.3827 4.52295C16.4936 4.43962 16.6686 4.23509 16.8851 4.04484C17.0657 4.14843 17.4263 4.20022 17.6584 4.14843C18.9084 4.04484 19.1272 4.18728 19.4108 4.31643C19.6943 4.44559 19.7843 4.26464 19.6811 4.08368C19.5429 3.84097 19.4364 3.74767 19.1787 3.48902L19.6811 3.33397C20.2482 3.33397 20.8153 3.54082 21.0988 3.56672C21.3824 3.59262 21.5626 3.59262 21.6659 3.38576C21.8462 2.8429 22.1812 2.73964 22.4133 2.66195C22.6454 2.58425 22.8257 2.37773 22.6195 2.32594H22.1039C21.6659 2.35184 21.64 2.50689 21.5112 2.66195C21.382 2.817 21.2276 2.99796 20.8926 2.94616C20.5576 2.89437 19.8487 2.77816 19.4364 2.80406C19.114 2.82431 18.6504 3.15301 17.7483 3.12712C18.1092 2.22235 21.4597 1.86077 22.1039 1.83454C26.382 1.65359 27.2841 1.86044 29.2427 2.27414C31.2014 2.68785 34.1471 3.64939 39.7909 5.89821C45.1551 8.03579 55.5654 13.2828 57.9713 15.4244C58.1074 15.5602 58.8933 16.116 59.7825 16.116H61.6379C62.102 16.116 62.2305 16.5426 62.2305 16.7495C62.2305 16.9563 62.1153 17.5125 61.7288 17.5125Z" fill="#F2F2F2"/>
</g>
<defs>
<clipPath id="clip0_498_23654">
<rect width="63" height="30" fill="white" transform="translate(0.244141 0.5)"/>
</clipPath>
</defs>
</svg>
