<svg width="24" height="24" viewBox="0 0 24 24" fill="none" xmlns="http://www.w3.org/2000/svg">
<path d="M20.3775 17.854C20.0945 17.3708 19.6428 17.0093 19.1094 16.8389L19.0445 16.8194C18.9666 16.7945 18.8861 16.7782 18.8045 16.7708C18.3881 16.8738 17.9962 17.0584 17.6516 17.3139C17.307 17.5695 17.0165 17.8908 16.797 18.2594L16.4856 22.7026C16.437 22.7026 16.4597 22.7026 16.4856 22.7026L16.4597 23.3513H16.7062C19.9072 23.3513 20.5072 20.6399 20.5591 20.3643C20.8251 19.3556 20.757 18.5091 20.3775 17.854Z" fill="#D6D7D8"/>
<path d="M7.51423 22.7027L7.18991 18.2692C6.91423 18.0163 6.30126 16.8422 5.18234 16.7773C5.10115 16.787 5.02088 16.8033 4.94234 16.826H4.89693C4.3516 16.9916 3.8885 17.3563 3.59964 17.8476C3.21369 18.4963 3.15207 19.3492 3.41801 20.3579C3.46991 20.6303 4.06666 23.3449 7.27099 23.3449H7.51747L7.49153 22.6963C7.54018 22.7028 7.55964 22.7027 7.51423 22.7027Z" fill="#D6D7D8"/>
<path d="M9.5159 5.46169H10.1646V6.51899H9.06185V11.3255H14.9418V6.51899H13.8391V5.46169H14.4878C14.6523 5.46174 14.8149 5.42715 14.9651 5.36016C15.1153 5.29317 15.2497 5.19529 15.3595 5.0729C15.4693 4.95051 15.5522 4.80636 15.6026 4.64982C15.653 4.49328 15.6699 4.32788 15.6521 4.16439L15.3732 1.70277C15.3449 1.41262 15.209 1.14358 14.9924 0.948523C14.7757 0.75347 14.4939 0.646525 14.2024 0.648715H9.79807C9.50761 0.647259 9.22705 0.754117 9.01115 0.948421C8.79526 1.14273 8.65954 1.41053 8.6305 1.69953L8.35158 4.16763C8.33381 4.33113 8.35069 4.49653 8.40111 4.65306C8.45152 4.8096 8.53435 4.95376 8.6442 5.07615C8.75404 5.19854 8.88844 5.29641 9.03863 5.3634C9.18883 5.43039 9.35145 5.46498 9.5159 5.46493V5.46169ZM13.1905 6.51899H10.81V5.46169H13.1905V6.51899Z" fill="#D6D7D8"/>
<path d="M18.665 16.1384L18.7623 16.1157H18.8596H18.9277C18.6683 14.5265 18.331 11.9449 18.4834 9.8984C18.5552 9.48727 18.5431 9.06587 18.4478 8.65955C18.3524 8.25323 18.1759 7.87039 17.9288 7.53407C17.4261 6.91461 16.6315 6.5611 15.5904 6.51245V17.7957H8.40988V6.53191C7.36231 6.59029 6.5742 6.93407 6.0715 7.55353C5.82381 7.88961 5.64671 8.27233 5.55084 8.67866C5.45497 9.08499 5.44232 9.50651 5.51366 9.91786C5.66609 11.9643 5.3288 14.546 5.06934 16.1352C5.08443 16.1367 5.09964 16.1367 5.11474 16.1352H5.17312H5.2315C6.40231 16.2033 7.10934 17.1081 7.50177 17.6076C7.54907 17.6751 7.59995 17.7401 7.6542 17.8022L7.82609 17.9708L7.86177 18.2303V18.4573L8.20555 23.3222H8.18609V23.3514H15.8077L15.8596 22.0541H15.892L16.1742 18.0584L16.2585 17.9222C16.5202 17.4792 16.868 17.0932 17.2813 16.7868C17.6946 16.4805 18.1651 16.26 18.665 16.1384Z" fill="#D6D7D8"/>
<path d="M9.05859 11.9741H14.9418V17.1471H9.05859V11.9741Z" fill="#D6D7D8"/>
</svg>
