<svg width="22" height="22" viewBox="0 0 22 22" fill="none" xmlns="http://www.w3.org/2000/svg">
<path d="M20.9436 13.2001C20.5476 11.1761 19.5356 9.28411 18.0396 7.87611L17.8636 8.05211L15.3556 10.5601C16.1476 11.3521 16.6756 12.3641 16.9396 13.4641C16.9836 13.7281 17.2476 13.9481 17.5556 13.9481H20.3276C20.5036 13.9481 20.7236 13.8601 20.8116 13.7281C20.9436 13.5961 20.9876 13.4201 20.9436 13.2001ZM11.4396 5.06011V8.80011C12.6276 8.88811 13.7716 9.32811 14.6956 10.0321L17.3796 7.34811C15.7076 5.94011 13.5956 5.14811 11.4396 5.06011ZM4.13556 8.09611L3.95956 7.87611C2.46356 9.32811 1.45156 11.2201 1.05556 13.2001C1.01156 13.3761 1.05556 13.5961 1.18756 13.7281C1.31956 13.8601 1.49556 13.9481 1.67156 13.9481H4.44356C4.75156 13.9481 5.01556 13.7281 5.05956 13.4641C5.32356 12.3641 5.85156 11.3521 6.64356 10.5601L4.13556 8.09611ZM4.61956 7.30411L7.30356 9.98811C7.30356 9.98811 7.34756 9.94411 7.39156 9.94411C7.39156 9.68011 7.43556 9.46011 7.61156 9.28411C7.83156 9.02011 8.13956 8.84411 8.49156 8.84411C8.71156 8.84411 8.93156 8.93211 9.15156 9.06411C9.63556 8.88811 10.1196 8.80011 10.6036 8.75611V5.01611C8.40356 5.14811 6.29156 5.94011 4.61956 7.30411Z" fill="#D6D7D8"/>
<path d="M10.9995 11.9242C10.8675 11.9242 10.6915 11.9242 10.5595 11.9682C9.94349 11.3082 8.97549 10.2082 8.62349 9.81217C8.49149 9.68017 8.22749 9.81217 8.27149 9.98817C8.35949 10.2962 8.22749 9.81217 9.10749 12.8042C8.71149 13.2442 8.49149 13.8162 8.49149 14.4322C8.49149 15.7962 9.63549 16.9402 10.9995 16.9402C12.4075 16.9402 13.5075 15.7962 13.5075 14.4322C13.5075 13.0242 12.3635 11.9242 10.9995 11.9242ZM10.9995 15.5322C10.4275 15.5322 9.98749 15.0922 9.98749 14.5202C9.98749 13.9482 10.4715 13.5082 10.9995 13.5082C11.5715 13.5082 12.0115 13.9482 12.0115 14.5202C12.0115 15.0482 11.5715 15.5322 10.9995 15.5322Z" fill="#D6D7D8"/>
</svg>
